{
  "accessors": [
    {
      "bufferView": 2,
      "componentType": 5126,
      "count": 2265,
      "max": [
        0.27116090059280396,
        0.22134923934936523,
        0.06677331775426865
      ],
      "min": [
        -0.21887344121932983,
        0.009952002204954624,
        -0.06677331775426865
      ],
      "type": "VEC3"
    },
    {
      "bufferView": 2,
      "byteOffset": 27180,
      "componentType": 5126,
      "count": 2265,
      "max": [
        1.0,
        1.0,
        1.0
      ],
      "min": [
        -1.0,
        -1.0,
        -1.0
      ],
      "type": "VEC3"
    },
    {
      "bufferView": 3,
      "componentType": 5126,
      "count": 2265,
      "max": [
        1.0,
        1.0,
        1.0,
        1.0
      ],
      "min": [
        -1.0,
        -1.0,
        -1.0,
        1.0
      ],
      "type": "VEC4"
    },
    {
      "bufferView": 1,
      "componentType": 5126,
      "count": 2265,
      "max": [
        0.9853515625,
        0.9934883117675781
      ],
      "min": [
        0.001953125,
        0.001953125
      ],
      "type": "VEC2"
    },
    {
      "bufferView": 1,
      "byteOffset": 18120,
      "componentType": 5126,
      "count": 2265,
      "max": [
        0.984375,
        0.9919357299804688
      ],
      "min": [
        0.00806427001953125,
        0.0087890625
      ],
      "type": "VEC2"
    },
    {
      "bufferView": 1,
      "byteOffset": 36240,
      "componentType": 5126,
      "count": 2265,
      "max": [
        0.9853515625,
        0.9934883117675781
      ],
      "min": [
        0.001953125,
        0.001953125
      ],
      "type": "VEC2"
    },
    {
      "bufferView": 1,
      "byteOffset": 54360,
      "componentType": 5126,
      "count": 2265,
      "max": [
        0.9853515625,
        0.9934883117675781
      ],
      "min": [
        0.001953125,
        0.001953125
      ],
      "type": "VEC2"
    },
    {
      "bufferView": 1,
      "byteOffset": 72480,
      "componentType": 5126,
      "count": 2265,
      "max": [
        0.9853515625,
        0.9934883117675781
      ],
      "min": [
        0.001953125,
        0.001953125
      ],
      "type": "VEC2"
    },
    {
      "bufferView": 1,
      "byteOffset": 90600,
      "componentType": 5126,
      "count": 2265,
      "max": [
        0.9853515625,
        0.9934883117675781
      ],
      "min": [
        0.001953125,
        0.001953125
      ],
      "type": "VEC2"
    },
    {
      "bufferView": 0,
      "componentType": 5125,
      "count": 6306,
      "type": "SCALAR"
    },
    {
      "bufferView": 2,
      "byteOffset": 54360,
      "componentType": 5126,
      "count": 1364,
      "max": [
        0.2012159675359726,
        0.19742195308208466,
        0.08478282392024994
      ],
      "min": [
        -0.2012159824371338,
        0.009977633133530617,
        -0.08478282392024994
      ],
      "type": "VEC3"
    },
    {
      "bufferView": 2,
      "byteOffset": 70728,
      "componentType": 5126,
      "count": 1364,
      "max": [
        1.0,
        1.0,
        1.0
      ],
      "min": [
        -1.0,
        -1.0,
        -1.0
      ],
      "type": "VEC3"
    },
    {
      "bufferView": 3,
      "byteOffset": 36240,
      "componentType": 5126,
      "count": 1364,
      "max": [
        1.0,
        1.0,
        1.0,
        1.0
      ],
      "min": [
        -1.0,
        -1.0,
        -1.0,
        1.0
      ],
      "type": "VEC4"
    },
    {
      "bufferView": 1,
      "byteOffset": 108720,
      "componentType": 5126,
      "count": 1364,
      "max": [
        0.998046875,
        0.9954833984375
      ],
      "min": [
        0.001953125,
        0.001953125
      ],
      "type": "VEC2"
    },
    {
      "bufferView": 1,
      "byteOffset": 119632,
      "componentType": 5126,
      "count": 1364,
      "max": [
        0.98876953125,
        0.9919357299804688
      ],
      "min": [
        0.00806427001953125,
        0.01171875
      ],
      "type": "VEC2"
    },
    {
      "bufferView": 1,
      "byteOffset": 130544,
      "componentType": 5126,
      "count": 1364,
      "max": [
        0.998046875,
        0.9954833984375
      ],
      "min": [
        0.001953125,
        0.001953125
      ],
      "type": "VEC2"
    },
    {
      "bufferView": 1,
      "byteOffset": 141456,
      "componentType": 5126,
      "count": 1364,
      "max": [
        0.998046875,
        0.9954833984375
      ],
      "min": [
        0.001953125,
        0.001953125
      ],
      "type": "VEC2"
    },
    {
      "bufferView": 1,
      "byteOffset": 152368,
      "componentType": 5126,
      "count": 1364,
      "max": [
        0.998046875,
        0.9954833984375
      ],
      "min": [
        0.001953125,
        0.001953125
      ],
      "type": "VEC2"
    },
    {
      "bufferView": 1,
      "byteOffset": 163280,
      "componentType": 5126,
      "count": 1364,
      "max": [
        0.998046875,
        0.9954833984375
      ],
      "min": [
        0.001953125,
        0.001953125
      ],
      "type": "VEC2"
    },
    {
      "bufferView": 0,
      "byteOffset": 25224,
      "componentType": 5125,
      "count": 3420,
      "type": "SCALAR"
    }
  ],
  "asset": {
    "extras": {
      "author": "MaX3Dd (https://sketchfab.com/MaX3Dd)",
      "license": "CC-BY-4.0 (http://creativecommons.org/licenses/by/4.0/)",
      "source": "https://sketchfab.com/3d-models/toy-train-b0a6bd61723c497f86b232555938e7a9",
      "title": "Toy Train"
    },
    "generator": "Sketchfab-13.55.0",
    "version": "2.0"
  },
  "bufferViews": [
    {
      "buffer": 0,
      "byteLength": 38904,
      "name": "floatBufferViews",
      "target": 34963
    },
    {
      "buffer": 0,
      "byteLength": 174192,
      "byteOffset": 38904,
      "byteStride": 8,
      "name": "floatBufferViews",
      "target": 34962
    },
    {
      "buffer": 0,
      "byteLength": 87096,
      "byteOffset": 213096,
      "byteStride": 12,
      "name": "floatBufferViews",
      "target": 34962
    },
    {
      "buffer": 0,
      "byteLength": 58064,
      "byteOffset": 300192,
      "byteStride": 16,
      "name": "floatBufferViews",
      "target": 34962
    }
  ],
  "buffers": [
    {
      "byteLength": 358256,
      "uri": "scene.bin"
    }
  ],
  "images": [
    {
      "uri": "textures/toytrain_baseColor.png"
    },
    {
      "uri": "textures/toytrain_metallicRoughness.png"
    },
    {
      "uri": "textures/toytrain_normal.png"
    }
  ],
  "materials": [
    {
      "doubleSided": true,
      "name": "toytrain",
      "normalTexture": {
        "index": 2
      },
      "occlusionTexture": {
        "index": 1
      },
      "pbrMetallicRoughness": {
        "baseColorTexture": {
          "index": 0
        },
        "metallicRoughnessTexture": {
          "index": 1
        }
      }
    }
  ],
  "meshes": [
    {
      "name": "toytrain_01_toytrain_0",
      "primitives": [
        {
          "attributes": {
            "NORMAL": 1,
            "POSITION": 0,
            "TANGENT": 2,
            "TEXCOORD_0": 3,
            "TEXCOORD_1": 4,
            "TEXCOORD_2": 5,
            "TEXCOORD_3": 6,
            "TEXCOORD_4": 7,
            "TEXCOORD_5": 8
          },
          "indices": 9,
          "material": 0,
          "mode": 4
        }
      ]
    },
    {
      "name": "toytrain_02_toytrain_0",
      "primitives": [
        {
          "attributes": {
            "NORMAL": 11,
            "POSITION": 10,
            "TANGENT": 12,
            "TEXCOORD_0": 13,
            "TEXCOORD_1": 14,
            "TEXCOORD_2": 15,
            "TEXCOORD_3": 16,
            "TEXCOORD_4": 17,
            "TEXCOORD_5": 18
          },
          "indices": 19,
          "material": 0,
          "mode": 4
        }
      ]
    }
  ],
  "nodes": [
    {
      "children": [
        1
      ],
      "matrix": [
        1.0,
        0.0,
        0.0,
        0.0,
        0.0,
        2.220446049250313e-16,
        -1.0,
        0.0,
        0.0,
        1.0,
        2.220446049250313e-16,
        0.0,
        0.0,
        0.0,
        0.0,
        1.0
      ],
      "name": "Sketchfab_model"
    },
    {
      "children": [
        2
      ],
      "matrix": [
        0.009999999776482582,
        0.0,
        0.0,
        0.0,
        0.0,
        0.0,
        0.009999999776482582,
        0.0,
        0.0,
        -0.009999999776482582,
        0.0,
        0.0,
        0.0,
        0.0,
        0.0,
        1.0
      ],
      "name": "toytrain.FBX"
    },
    {
      "children": [
        3,
        5
      ],
      "name": "RootNode"
    },
    {
      "children": [
        4
      ],
      "matrix": [
        85.1834716796875,
        0.0,
        0.0,
        0.0,
        0.0,
        85.18347167968741,
        3.723487938604876e-06,
        0.0,
        0.0,
        -3.723487938604876e-06,
        85.18347167968741,
        0.0,
        -21.326108932495117,
        -0.7523794174194336,
        -4.0358025898967753e-07,
        1.0
      ],
      "name": "toytrain_01"
    },
    {
      "mesh": 0,
      "name": "toytrain_01_toytrain_0"
    },
    {
      "children": [
        6
      ],
      "matrix": [
        85.1834716796875,
        0.0,
        0.0,
        0.0,
        0.0,
        85.18347167968741,
        3.723487938604876e-06,
        0.0,
        0.0,
        -3.723487938604876e-06,
        85.18347167968741,
        0.0,
        19.605751037597656,
        -0.7523794174194336,
        -4.0358025898967753e-07,
        1.0
      ],
      "name": "toytrain_02"
    },
    {
      "mesh": 1,
      "name": "toytrain_02_toytrain_0"
    }
  ],
  "samplers": [
    {
      "magFilter": 9729,
      "minFilter": 9987,
      "wrapS": 10497,
      "wrapT": 10497
    }
  ],
  "scene": 0,
  "scenes": [
    {
      "name": "Sketchfab_Scene",
      "nodes": [
        0
      ]
    }
  ],
  "textures": [
    {
      "sampler": 0,
      "source": 0
    },
    {
      "sampler": 0,
      "source": 1
    },
    {
      "sampler": 0,
      "source": 2
    }
  ]
}
